<svg width="118" height="118" viewBox="0 0 118 118" fill="none" xmlns="http://www.w3.org/2000/svg">
<path fill-rule="evenodd" clip-rule="evenodd" d="M13.4325 26.1996C7.79556 19.8581 12.2973 9.83334 20.782 9.83334H97.218C105.703 9.83334 110.204 19.8581 104.568 26.1996L73.75 60.8693V103.25C73.75 104.954 72.8677 106.537 71.4182 107.432C69.9687 108.328 68.1587 108.41 66.6346 107.648L46.9679 97.8143C45.3022 96.9814 44.25 95.279 44.25 93.4167V60.8693L13.4325 26.1996ZM97.218 19.6667H20.782L52.8414 55.7336C53.6415 56.6336 54.0834 57.7958 54.0834 59V90.378L63.9167 95.2947V59C63.9167 57.7958 64.3586 56.6336 65.1586 55.7336L97.218 19.6667Z" fill="#403F3F"/>
</svg>
